<svg width="30" height="30" viewBox="0 0 30 30" fill="none" xmlns="http://www.w3.org/2000/svg">
<path fill-rule="evenodd" clip-rule="evenodd" d="M15 2.5C8.09625 2.5 2.5 8.105 2.5 15.0212C2.5 20.5525 6.08125 25.2463 11.0487 26.9012C11.6737 27.0163 11.9012 26.63 11.9012 26.2975C11.9012 26.0012 11.8913 25.2125 11.885 24.1687C8.4075 24.925 7.67375 22.49 7.67375 22.49C7.10625 21.0425 6.28625 20.6575 6.28625 20.6575C5.15125 19.8825 6.3725 19.8975 6.3725 19.8975C7.62625 19.985 8.28625 21.1875 8.28625 21.1875C9.40125 23.1 11.2125 22.5475 11.9237 22.2275C12.0387 21.4187 12.3612 20.8675 12.7188 20.555C9.94375 20.2388 7.025 19.1637 7.025 14.3663C7.025 13 7.5125 11.8813 8.31125 11.0063C8.1825 10.69 7.75375 9.41625 8.43375 7.69375C8.43375 7.69375 9.48375 7.35625 11.8713 8.97625C12.891 8.69814 13.943 8.55649 15 8.555C16.0625 8.56 17.1312 8.69875 18.13 8.97625C20.5163 7.35625 21.5637 7.6925 21.5637 7.6925C22.2463 9.41625 21.8162 10.69 21.6887 11.0063C22.4888 11.8813 22.9737 13 22.9737 14.3663C22.9737 19.1763 20.05 20.235 17.2662 20.545C17.715 20.9313 18.1138 21.695 18.1138 22.8638C18.1138 24.5363 18.0988 25.8875 18.0988 26.2975C18.0988 26.6325 18.3237 27.0225 18.9587 26.9C21.4479 26.0651 23.6117 24.4691 25.1444 22.3376C26.677 20.206 27.5011 17.6466 27.5 15.0212C27.5 8.105 21.9025 2.5 15 2.5Z" fill="black"/>
</svg>
