<svg width="30" height="30" viewBox="0 0 30 30" fill="none" xmlns="http://www.w3.org/2000/svg">
<path fill-rule="evenodd" clip-rule="evenodd" d="M15.3937 2.5C18.4312 2.5 18.8737 2.51625 20.1537 2.575C21.4837 2.63625 22.3925 2.8475 23.1875 3.15625C24.0219 3.46984 24.7778 3.9617 25.4025 4.5975C26.0383 5.22222 26.5302 5.97813 26.8437 6.8125C27.1525 7.6075 27.3637 8.51625 27.425 9.84625C27.485 11.18 27.5 11.605 27.5 15V15.1C27.5 18.4037 27.485 18.8337 27.425 20.1537C27.3637 21.4837 27.1525 22.3925 26.8437 23.1875C26.5302 24.0219 26.0383 24.7778 25.4025 25.4025C24.7778 26.0383 24.0219 26.5302 23.1875 26.8437C22.3925 27.1525 21.4837 27.3637 20.1537 27.425C18.82 27.485 18.395 27.5 15 27.5H14.9C11.5962 27.5 11.1662 27.485 9.84625 27.425C8.51625 27.3637 7.6075 27.1525 6.8125 26.8437C5.97813 26.5302 5.22222 26.0383 4.5975 25.4025C3.9617 24.7778 3.46984 24.0219 3.15625 23.1875C2.8475 22.3925 2.63625 21.4837 2.575 20.1537C2.51625 18.8737 2.5 18.43 2.5 15.3937V14.6062C2.5 11.5687 2.51625 11.1262 2.575 9.84625C2.63625 8.51625 2.8475 7.6075 3.15625 6.8125C3.46984 5.97813 3.9617 5.22222 4.5975 4.5975C5.22222 3.9617 5.97813 3.46984 6.8125 3.15625C7.6075 2.8475 8.51625 2.63625 9.84625 2.575C11.1262 2.51625 11.57 2.5 14.6062 2.5H15.3937ZM15.2925 4.7525H14.7075C11.6375 4.7525 11.2275 4.76625 9.94875 4.825C8.73 4.88125 8.06875 5.08375 7.6275 5.255C7.04375 5.4825 6.6275 5.7525 6.19 6.19C5.7525 6.6275 5.4825 7.04375 5.255 7.6275C5.08375 8.06875 4.88 8.73 4.825 9.94875C4.76625 11.2275 4.7525 11.6375 4.7525 14.7075V15.2925C4.7525 18.3625 4.76625 18.7725 4.825 20.0512C4.88125 21.27 5.08375 21.9312 5.255 22.3725C5.4825 22.955 5.75375 23.3725 6.19 23.81C6.6275 24.2475 7.04375 24.5175 7.6275 24.745C8.06875 24.9162 8.73 25.12 9.94875 25.175C11.2662 25.235 11.6612 25.2475 15 25.2475H15.1C18.3462 25.2475 18.7463 25.235 20.05 25.175C21.27 25.1187 21.9312 24.9162 22.3725 24.745C22.955 24.5175 23.3725 24.2475 23.81 23.81C24.2475 23.3725 24.5175 22.9562 24.745 22.3725C24.9162 21.9312 25.12 21.27 25.175 20.0512C25.235 18.7325 25.2475 18.3387 25.2475 15V14.9C25.2475 11.6537 25.235 11.2537 25.175 9.95C25.1187 8.73 24.9162 8.06875 24.745 7.6275C24.5447 7.08446 24.2252 6.59325 23.81 6.19C23.4067 5.77482 22.9155 5.45532 22.3725 5.255C21.9312 5.08375 21.27 4.88 20.0512 4.825C18.7725 4.76625 18.3625 4.7525 15.2925 4.7525ZM15 8.58125C15.8429 8.58125 16.6776 8.74727 17.4563 9.06985C18.2351 9.39242 18.9427 9.86522 19.5387 10.4613C20.1348 11.0573 20.6076 11.7649 20.9302 12.5436C21.2527 13.3224 21.4187 14.1571 21.4187 15C21.4187 15.8429 21.2527 16.6776 20.9302 17.4563C20.6076 18.2351 20.1348 18.9427 19.5387 19.5387C18.9427 20.1348 18.2351 20.6076 17.4563 20.9302C16.6776 21.2527 15.8429 21.4187 15 21.4187C13.2976 21.4187 11.665 20.7425 10.4613 19.5387C9.25751 18.335 8.58125 16.7024 8.58125 15C8.58125 13.2976 9.25751 11.665 10.4613 10.4613C11.665 9.25751 13.2976 8.58125 15 8.58125ZM15 10.8337C13.895 10.8337 12.8353 11.2727 12.054 12.054C11.2727 12.8353 10.8337 13.895 10.8337 15C10.8337 16.105 11.2727 17.1647 12.054 17.946C12.8353 18.7273 13.895 19.1662 15 19.1662C16.105 19.1662 17.1647 18.7273 17.946 17.946C18.7273 17.1647 19.1662 16.105 19.1662 15C19.1662 13.895 18.7273 12.8353 17.946 12.054C17.1647 11.2727 16.105 10.8337 15 10.8337ZM21.6725 6.8275C22.0703 6.8275 22.4519 6.98553 22.7332 7.26684C23.0145 7.54814 23.1725 7.92968 23.1725 8.3275C23.1725 8.72532 23.0145 9.10685 22.7332 9.38816C22.4519 9.66946 22.0703 9.8275 21.6725 9.8275C21.2747 9.8275 20.8931 9.66946 20.6118 9.38816C20.3305 9.10685 20.1725 8.72532 20.1725 8.3275C20.1725 7.92968 20.3305 7.54814 20.6118 7.26684C20.8931 6.98553 21.2747 6.8275 21.6725 6.8275Z" fill="black"/>
</svg>
